<svg width="204" height="36" viewBox="0 0 204 36" fill="none" xmlns="http://www.w3.org/2000/svg">
<path d="M39.5 32.7051C38.3281 33.1934 37.1481 33.6328 35.96 34.0234C34.7718 34.4141 33.543 34.7477 32.2734 35.0244C31.0039 35.3174 29.6611 35.5371 28.2451 35.6836C26.8454 35.8301 25.3398 35.9033 23.7285 35.9033C20.3105 35.9033 17.1611 35.5371 14.2803 34.8047C11.4157 34.0723 8.94173 32.9736 6.8584 31.5088C4.79134 30.0277 3.18001 28.1885 2.02441 25.9912C0.868815 23.7777 0.291016 21.1979 0.291016 18.252C0.291016 15.306 0.868815 12.7344 2.02441 10.5371C3.18001 8.32357 4.79134 6.48438 6.8584 5.01953C8.94173 3.53841 11.4157 2.43164 14.2803 1.69922C17.1611 0.966797 20.3105 0.600586 23.7285 0.600586C25.3398 0.600586 26.8454 0.673828 28.2451 0.820312C29.6611 0.966797 31.0039 1.18652 32.2734 1.47949C33.543 1.75618 34.7718 2.08984 35.96 2.48047C37.1481 2.87109 38.3281 3.31055 39.5 3.79883V11.9531C38.5723 11.4486 37.5957 10.9521 36.5703 10.4639C35.5449 9.95931 34.4137 9.51172 33.1768 9.12109C31.9398 8.71419 30.5807 8.38867 29.0996 8.14453C27.6185 7.88411 25.9502 7.75391 24.0947 7.75391C21.2464 7.75391 18.8783 8.04688 16.9902 8.63281C15.1185 9.21875 13.6211 10 12.498 10.9766C11.375 11.9531 10.5856 13.0762 10.1299 14.3457C9.67415 15.599 9.44629 16.901 9.44629 18.252C9.44629 19.1471 9.54395 20.0342 9.73926 20.9131C9.93457 21.7757 10.2601 22.5977 10.7158 23.3789C11.1715 24.1439 11.7656 24.8519 12.498 25.5029C13.2305 26.154 14.1419 26.7155 15.2324 27.1875C16.3229 27.6595 17.5924 28.0339 19.041 28.3105C20.5059 28.571 22.1904 28.7012 24.0947 28.7012C25.9502 28.7012 27.6185 28.5872 29.0996 28.3594C30.5807 28.1152 31.9398 27.7979 33.1768 27.4072C34.4137 27.0166 35.5449 26.5771 36.5703 26.0889C37.5957 25.5843 38.5723 25.0716 39.5 24.5508V32.7051ZM87.5469 23.6963C87.5469 25.3727 87.1318 26.9515 86.3018 28.4326C85.4717 29.9137 84.2266 31.2077 82.5664 32.3145C80.9062 33.4212 78.8311 34.3001 76.3408 34.9512C73.8669 35.5859 70.9697 35.9033 67.6494 35.9033C64.3291 35.9033 61.4157 35.5859 58.9092 34.9512C56.4189 34.3001 54.3438 33.4212 52.6836 32.3145C51.0234 31.2077 49.7783 29.9137 48.9482 28.4326C48.1182 26.9515 47.7031 25.3727 47.7031 23.6963V1.45508H56.7363V20.4492C56.7363 21.5723 56.8747 22.6383 57.1514 23.6475C57.4443 24.6403 57.9814 25.5111 58.7627 26.2598C59.5602 27.0085 60.667 27.6025 62.083 28.042C63.5153 28.4814 65.3708 28.7012 67.6494 28.7012C69.9118 28.7012 71.751 28.4814 73.167 28.042C74.583 27.6025 75.6816 27.0085 76.4629 26.2598C77.2604 25.5111 77.7975 24.6403 78.0742 23.6475C78.3509 22.6383 78.4893 21.5723 78.4893 20.4492V1.45508H87.5469V23.6963ZM135.496 12.9053C135.496 14.5817 135.252 16.1279 134.764 17.5439C134.275 18.9437 133.486 20.1562 132.396 21.1816C131.321 22.1908 129.922 22.9801 128.196 23.5498C126.471 24.1195 124.371 24.4043 121.897 24.4043H106.858V35H97.8008V1.45508H121.897C124.371 1.45508 126.471 1.73991 128.196 2.30957C129.922 2.86296 131.321 3.65234 132.396 4.67773C133.486 5.68685 134.275 6.89128 134.764 8.29102C135.252 9.69076 135.496 11.2288 135.496 12.9053ZM126.341 13.0518C126.341 12.2705 126.227 11.6032 125.999 11.0498C125.787 10.4801 125.429 10.0163 124.925 9.6582C124.42 9.30013 123.761 9.03971 122.947 8.87695C122.133 8.69792 121.132 8.6084 119.944 8.6084H106.858V17.251H119.944C121.132 17.251 122.133 17.1859 122.947 17.0557C123.761 16.9092 124.42 16.6732 124.925 16.3477C125.429 16.0059 125.787 15.5664 125.999 15.0293C126.227 14.4922 126.341 13.833 126.341 13.0518ZM143.016 35V1.45508H152.073V35H143.016ZM203.685 18.2031C203.685 20.3516 203.449 22.264 202.977 23.9404C202.505 25.6006 201.837 27.0492 200.975 28.2861C200.128 29.5231 199.103 30.5729 197.898 31.4355C196.71 32.2982 195.384 32.9899 193.919 33.5107C192.454 34.0316 190.875 34.4141 189.183 34.6582C187.49 34.8861 185.724 35 183.885 35H162.596V1.45508H183.836C185.675 1.45508 187.441 1.57715 189.134 1.82129C190.826 2.04915 192.405 2.4235 193.87 2.94434C195.351 3.46517 196.694 4.1569 197.898 5.01953C199.103 5.86589 200.128 6.91569 200.975 8.16895C201.837 9.40592 202.505 10.8545 202.977 12.5146C203.449 14.1748 203.685 16.071 203.685 18.2031ZM194.554 18.2031C194.554 16.5918 194.342 15.1921 193.919 14.0039C193.512 12.8158 192.845 11.8392 191.917 11.0742C191.006 10.293 189.809 9.71517 188.328 9.34082C186.847 8.9502 185.04 8.75488 182.908 8.75488H171.653V27.7002H182.908C185.04 27.7002 186.847 27.513 188.328 27.1387C189.809 26.748 191.006 26.1621 191.917 25.3809C192.845 24.5833 193.512 23.5905 193.919 22.4023C194.342 21.2142 194.554 19.8145 194.554 18.2031Z" fill="url(#paint0_linear_1_218)"/>
<defs>
<linearGradient id="paint0_linear_1_218" x1="-113" y1="21" x2="317" y2="21" gradientUnits="userSpaceOnUse">
<stop offset="0.33" stop-color="#ED217C"/>
<stop offset="1" stop-color="#5C1E35"/>
</linearGradient>
</defs>
</svg>
